# xmcd CD database file
#
# Track frame offsets:
#	150
#	26167
#	53560
#	95575
#	122922
#
# Disc length: 2107 seconds
#
# Revision: 0
# Processed by: cddbd v1.4PL0 Copyright (c) Steve Scherf et al.
# Submitted via: CDex 1.50beta10
#
DISCID=3d083905
DTITLE=Irakere - The Best Of Irakere [CD1]
DYEAR=1900
DGENRE=Jazz
TTITLE0=Gira Gira
TTITLE1=Claudia
TTITLE2=Ilya
TTITLE3=Anunga Nunga
TTITLE4=Ciento Anos de Juventud
EXTD=
EXTT0=
EXTT1=
EXTT2=
EXTT3=
EXTT4=
PLAYORDER=
